<?xml version="1.0" encoding="UTF-8"?>
<svg width="124px" height="129px" viewBox="0 0 124 129" version="1.1" xmlns="http://www.w3.org/2000/svg" xmlns:xlink="http://www.w3.org/1999/xlink">
    <!-- Generator: Sketch 64 (93537) - https://sketch.com -->
    <title>熊猫</title>
    <desc>Created with Sketch.</desc>
    <g id="控件" stroke="none" stroke-width="1" fill="none" fill-rule="evenodd">
        <g id="画板" transform="translate(-2.000000, 0.000000)">
            <g id="编组-2" transform="translate(2.000000, 0.000000)">
                <path d="M109.019252,37.1191004 L106.354452,34.0949741 L108.090793,30.4583055 C109.460572,27.6078132 110.155108,24.5330437 110.155108,21.325637 C110.155108,9.56675358 100.588355,0 88.8246482,0 C81.5440763,0 74.844696,3.65596129 70.8921099,9.7741498 L70.1758695,10.8955363 C67.4025479,10.3891037 64.5544672,10.0852441 61.6340391,10.0852441 C58.846248,10.0852441 56.133216,10.3746342 53.4828853,10.8376583 L52.7377058,9.69697912 C48.7778849,3.62702228 42.088151,0 34.848576,0 C23.0896926,0 13.5205274,9.56675358 13.5205274,21.325637 C13.5205274,24.4896351 14.2030057,27.5402889 15.5462579,30.3907811 L17.2391899,33.9960991 L14.6250329,36.993698 C2.66116481,50.7180223 -5.13548614,77.047696 3.98753599,98.8098297 C9.76810275,112.582386 23.4876039,127.29546 44.6637227,127.29546 C46.4458833,127.29546 48.2738639,127.191761 50.1066677,126.981954 C56.9652125,126.207835 62.8084804,123.996413 67.4700722,120.405564 L72.4379352,116.573557 L76.1228355,121.64753 C78.7972821,125.320372 83.2370082,127.264109 88.9669317,127.264109 L89.5071265,127.256874 C104.938852,126.89996 118.91157,109.169994 122.282964,92.8291015 C127.901955,65.5950838 118.173625,47.5009693 109.019252,37.1191004" id="Fill-1" fill="#FFFFFF"></path>
                <path d="M73.8463002,11.6749603 C77.0078868,6.76738692 82.5376488,3.50451382 88.8246482,3.50451382 C98.6759687,3.50451382 106.646254,11.479622 106.646254,21.3237077 C106.646254,25.756199 105.032904,29.8076601 102.348811,32.9234266 C96.0280495,22.5825546 85.8559884,14.8389584 73.8463002,11.6749603" id="Fill-3" fill="#000000"></path>
                <path d="M17.0351699,21.3249135 C17.0351699,11.4784162 25.0030433,3.50571961 34.8495406,3.50571961 C41.1100126,3.50571961 46.6132472,6.73241895 49.7868917,11.6134649 C37.7410298,14.7051155 27.5279717,22.4101263 21.1565669,32.7244709 C18.5906415,29.6328203 17.0351699,25.6657646 17.0351699,21.3249135" id="Fill-5" fill="#000000"></path>
                <path d="M105.003724,37.9151642 C114.89363,48.3983197 124.277103,65.7858401 118.838981,92.1251601 C115.388004,108.863964 101.57204,123.475752 89.4297147,123.748261 C79.7616745,123.970126 75.6885092,117.789237 77.4851393,109.792424 C78.2761388,106.295628 80.1451164,102.880825 85.6941711,98.8076593 C99.8164068,90.5455727 109.298755,75.2296029 109.298755,57.7022107 C109.298755,50.6435044 107.757753,43.9417126 105.003724,37.9151642" id="Fill-7" fill="#000000"></path>
                <path d="M73.8463002,59.5687766 C68.2707181,52.1893297 67.8173403,43.1362435 72.8358466,39.3669378 C77.8519412,35.5903973 86.432357,38.5156486 91.9934696,45.8975072 C97.5642285,53.2793657 98.0127831,62.3324519 92.9942769,66.1017576 C87.9878286,69.8710633 79.4098244,66.9554583 73.8463002,59.5687766" id="Fill-9" fill="#000000"></path>
                <path d="M49.5445275,59.5687766 C55.1032285,52.1893297 55.5638411,43.1362435 50.5477464,39.3669378 C45.5316518,35.5903973 36.9488244,38.5156486 31.3853002,45.8975072 C25.8193645,53.2793657 25.3708098,62.3324519 30.3893161,66.1017576 C35.4005875,69.8710633 43.9761801,66.9554583 49.5445275,59.5687766" id="Fill-11" fill="#000000"></path>
                <path d="M60.7263188,91.0594812 C57.8348297,96.7074108 49.242356,94.3898786 47.6458874,88.7732996 C46.7029581,85.4404906 48.1981402,81.5674867 50.2142244,79.4959361 C56.0406112,73.491092 66.2078492,74.4291982 71.4602791,82.0136297 C80.1564508,94.5562779 75.5551486,120.582092 49.7102033,123.495286 C28.7463039,125.865873 13.7872486,113.106182 7.23015179,97.4574134 C-1.89045876,75.7362767 7.15056952,49.9443862 18.2438557,38.2361461 C15.5694091,44.1758774 14.0766387,50.7595016 14.0766387,57.7024518 C14.0766387,74.2724452 22.2856705,88.2162237 34.4906969,96.3939049 C47.0502262,104.798275 62.4843636,100.045043 60.7263188,91.0594812" id="Fill-13" fill="#000000"></path>
            </g>
        </g>
    </g>
</svg>