<?xml version="1.0" encoding="UTF-8"?>
<svg width="128px" height="128px" viewBox="0 0 128 128" version="1.1" xmlns="http://www.w3.org/2000/svg" xmlns:xlink="http://www.w3.org/1999/xlink">
    <!-- Generator: Sketch 64 (93537) - https://sketch.com -->
    <title>主页</title>
    <desc>Created with Sketch.</desc>
    <g id="控件" stroke="none" stroke-width="1" fill="none" fill-rule="evenodd">
        <g id="主页">
            <g id="icon/侧边栏1/首页/未选中">
                <g>
                    <path d="M70.5840525,2.52575002 L116.766747,44.4385243 C118.823128,46.3069287 119.99834,48.9699609 120,51.7650809 L120,118.153014 C120,123.581913 115.631916,128 110.261059,128 L72,128 L72,83.7647058 C72,81.6855162 70.0897483,80 67.7333334,80 L67.7333334,80 L60.2666666,80 C57.9102517,80 56,81.6855162 56,83.7647058 L56,83.7647058 L56,128 L17.7389412,128 C12.3680843,128 8,123.582647 8,118.153748 L8,51.7702157 C8.00150321,48.9703725 9.180782,46.3032938 11.2434114,44.4348566 L57.5828345,2.51401343 C61.2823648,-0.842486622 66.8904576,-0.837424027 70.5840525,2.52575002 Z" id="Combined-Shape" fill="#000000" fill-rule="nonzero"></path>
                    <rect id="矩形" x="0" y="0" width="128" height="128"></rect>
                </g>
            </g>
        </g>
    </g>
</svg>