<?xml version="1.0" encoding="UTF-8"?>
<svg width="128px" height="128px" viewBox="0 0 128 128" version="1.1" xmlns="http://www.w3.org/2000/svg" xmlns:xlink="http://www.w3.org/1999/xlink">
    <!-- Generator: Sketch 64 (93537) - https://sketch.com -->
    <title>天府金租</title>
    <desc>Created with Sketch.</desc>
    <g id="控件" stroke="none" stroke-width="1" fill="none" fill-rule="evenodd">
        <g id="画板">
            <g id="编组-2">
                <circle id="椭圆形" fill="#FF8F59" cx="64" cy="64" r="64"></circle>
                <g id="租" transform="translate(32.000000, 24.000000)" fill="#FFFFFF" fill-rule="nonzero">
                    <path d="M45.7695852,24.6766169 L17.5668203,24.6766169 C16.7834102,24.6766169 16,24.0597015 16,23.1343284 C16,22.3631841 16.6267281,21.5920398 17.5668203,21.5920398 L45.7695852,21.5920398 C46.5529954,21.5920398 47.3364055,22.2089552 47.3364055,23.1343284 C47.3364055,24.0597015 46.5529954,24.6766169 45.7695852,24.6766169 Z M16.7834101,53.2089552 C18.8202765,50.2786069 20.5437788,46.5771144 21.953917,42.2587064 L16.9400922,42.2587064 L16.9400922,39.9452736 L22.2672811,39.9452736 L22.2672811,34.7014925 C20.8571429,34.8557214 19.2903226,34.8557214 17.7235023,35.0099503 C17.5668203,34.238806 17.4101382,33.4676617 17.2534562,32.5422885 C21.953917,32.2338308 25.8709677,31.9253731 29.3179724,31.4626866 L29.9447005,33.9303482 C28.5345623,34.084577 26.967742,34.2388059 24.9308756,34.3930348 L24.9308756,39.7910448 L30.1013825,39.7910448 L30.1013825,42.1044776 L24.7741936,42.1044776 L24.7741936,46.5771144 L26.1843318,45.3432836 C27.437788,46.5771144 28.8479262,48.119403 30.4147465,49.8159204 L28.5345622,51.358209 C27.124424,49.5074627 25.8709677,48.119403 24.6175115,46.8855721 L24.6175115,62 L22.2672811,62 L22.2672811,47.3482587 C21.0138249,50.5870646 19.6036866,53.3631841 17.8801844,55.8308458 C17.5668203,55.2139304 17.0967742,54.1343284 16.7834101,53.2089552 L16.7834101,53.2089552 Z M27.7511521,58.4527363 L31.8248848,58.4527363 L31.8248848,31.9253731 L47.1797235,31.9253731 L47.1797235,58.4527363 L50,58.4527363 L50,60.7661691 L27.7511521,60.7661691 L27.7511521,58.4527363 L27.7511521,58.4527363 Z M34.3317972,34.2388059 L34.3317972,40.7164179 L44.359447,40.7164179 L44.359447,34.2388059 L34.3317972,34.2388059 Z M34.3317972,49.6616915 L44.359447,49.6616915 L44.359447,43.1840796 L34.3317972,43.1840796 L34.3317972,49.6616915 Z M34.3317972,58.4527363 L44.359447,58.4527363 L44.359447,51.8208955 L34.3317972,51.8208955 L34.3317972,58.4527363 Z M43.4193548,16.1940298 L21.483871,16.1940298 C19.7603687,16.1940298 18.3502304,14.8059701 18.3502304,13.1094528 L18.3502304,10.0248756 C18.3502304,8.32835821 19.7603686,6.94029846 21.483871,6.94029854 L26.967742,6.94029854 L26.967742,4.62686564 C26.967742,2.00497511 29.0046083,0 31.6682028,0 L33.2350231,0 C35.8986175,0 37.9354839,2.00497511 37.9354839,4.62686564 L37.9354839,6.94029854 L43.4193548,6.94029854 C45.1428571,6.94029854 46.5529954,8.32835821 46.5529954,10.0248756 L46.5529954,13.1094528 C46.5529954,14.8059701 45.1428572,16.1940298 43.4193548,16.1940298 Z M21.483871,10.0248756 L21.483871,13.1094528 L43.4193548,13.1094528 L43.4193548,10.0248756 L34.8018434,10.0248756 L34.8018434,4.62686564 C34.8018434,3.7014925 34.1751152,3.08457714 33.2350231,3.08457714 L31.6682028,3.08457714 C30.7281106,3.08457714 30.1013825,3.70149257 30.1013825,4.62686564 L30.1013825,10.0248756 L21.483871,10.0248756 Z" id="形状"></path>
                    <path d="M59.4285714,74 L4.57142861,74 C1.98095243,74 0,71.719715 0,69.1353919 L0,15.0166271 C0,12.280285 2.13333335,10.152019 4.57142861,10.152019 L19.6571429,10.152019 L19.6571429,13.3444181 L4.57142861,13.3444181 C3.80952388,13.3444181 3.04761908,14.1045131 3.04761908,15.1686461 L3.04761908,69.2874109 C3.04761908,70.1995249 3.65714289,71.111639 4.57142861,71.111639 L59.4285714,71.111639 C60.1904761,71.111639 60.9523809,70.351544 60.9523809,69.2874109 L60.9523809,15.0166271 C60.9523809,14.1045131 60.3428571,13.192399 59.4285714,13.192399 L46.0190476,13.192399 L46.0190476,10 L59.4285714,10 C62.0190476,10 64,12.280285 64,14.8646081 L64,68.9833729 C64,71.719715 62.0190476,74 59.4285714,74 Z" id="路径"></path>
                </g>
            </g>
        </g>
    </g>
</svg>