<?xml version="1.0" encoding="UTF-8"?>
<svg width="128px" height="128px" viewBox="0 0 128 128" version="1.1" xmlns="http://www.w3.org/2000/svg" xmlns:xlink="http://www.w3.org/1999/xlink">
    <!-- Generator: Sketch 64 (93537) - https://sketch.com -->
    <title>weixinfang</title>
    <desc>Created with Sketch.</desc>
    <g id="控件" stroke="none" stroke-width="1" fill="none" fill-rule="evenodd">
        <g id="画板" fill-rule="nonzero">
            <g id="weixinfang">
                <path d="M106.811897,126.967767 L20.2940383,126.967767 C9.05795278,126.967767 0.0690843523,117.978899 0.0690843523,106.742813 L0.0690843523,20.224954 C0.0690843523,8.98886843 9.05795278,0 20.2940383,0 L106.811897,0 C118.047983,0 127.036851,8.98886843 127.036851,20.224954 L127.036851,106.742813 C127.411387,117.978899 118.047983,126.967767 106.811897,126.967767 L106.811897,126.967767 Z" id="路径" fill="#6BC839"></path>
                <path d="M80.2198281,48.315168 C81.3434366,48.315168 82.4670452,48.315168 83.5906538,48.6897042 C80.5943643,35.2064015 66.3619892,25.4684606 50.2569333,25.4684606 C31.9046601,25.4684606 17.297749,37.8281548 17.297749,53.5586745 C17.297749,62.5475429 22.1667194,70.0382667 30.4065155,76.0308456 L27.0356898,86.1433228 L38.6463115,80.1507437 C42.7662096,80.8998161 46.1370352,81.6488885 50.2569333,81.6488885 L53.2532228,81.6488885 C52.5041504,79.4016713 52.1296142,77.1544542 52.1296142,74.532701 C52.1296142,59.9257897 64.4893084,48.315168 80.2198281,48.315168 L80.2198281,48.315168 Z M62.6166274,39.3262995 C65.2383807,39.3262995 66.7365254,40.8244443 66.7365254,43.4461975 C66.7365254,46.0679508 65.2383806,47.5660956 62.6166274,47.5660956 C59.9948741,47.5660956 57.7476569,46.0679508 57.7476569,43.4461975 C57.3731208,40.8244442 59.9948741,39.3262995 62.6166274,39.3262995 Z M39.3953839,47.5660956 C36.7736306,47.5660956 34.5264134,46.0679508 34.5264134,43.4461975 C34.5264134,40.8244442 37.1481668,39.3262995 39.3953839,39.3262995 C41.642601,39.3262995 43.5152819,40.8244443 43.5152819,43.4461975 C43.5152819,46.0679508 41.6426009,47.5660956 39.3953839,47.5660956 L39.3953839,47.5660956 Z" id="形状" fill="#FFFFFF"></path>
                <path d="M110.557259,74.1581648 C110.557259,61.0493983 97.4484927,50.1878489 82.4670452,50.1878489 C66.7365254,50.1878489 54.3768312,61.0493983 54.3768312,74.1581648 C54.3768312,87.2669313 66.7365254,98.1284807 82.4670452,98.1284806 C85.8378709,98.1284806 89.2086965,97.3794082 92.5795222,96.6303359 L101.568391,101.499306 L98.9466374,93.2595102 C105.688289,88.3905398 110.557259,81.6488885 110.557259,74.1581648 L110.557259,74.1581648 Z M73.1036406,70.0382667 C71.6054958,70.0382667 69.7328149,68.540122 69.7328149,66.667441 C69.7328149,65.1692963 71.2309596,63.2966154 73.1036406,63.2966154 C75.7253939,63.2966154 77.2235386,64.7947602 77.2235386,66.667441 C77.2235386,68.5401218 75.7253938,70.0382667 73.1036406,70.0382667 Z M91.4559136,70.0382667 C89.9577689,70.0382667 88.0850881,68.540122 88.0850881,66.667441 C88.0850881,65.1692963 89.5832328,63.2966154 91.4559136,63.2966154 C94.077667,63.2966154 95.5758117,64.7947602 95.5758117,66.667441 C95.5758117,68.5401218 94.077667,70.0382667 91.4559136,70.0382667 Z" id="形状" fill="#FFFFFF"></path>
            </g>
        </g>
    </g>
</svg>