<?xml version="1.0" encoding="UTF-8"?>
<svg width="128px" height="128px" viewBox="0 0 128 128" version="1.1" xmlns="http://www.w3.org/2000/svg" xmlns:xlink="http://www.w3.org/1999/xlink">
    <!-- Generator: Sketch 64 (93537) - https://sketch.com -->
    <title>搜索</title>
    <desc>Created with Sketch.</desc>
    <defs>
        <path d="M124.521696,117.351562 L95.5955378,88.4390625 C103.343867,79.0875 107.998489,67.0921875 107.998489,54 C107.998489,24.1734375 83.8253899,0 53.9992446,0 C24.1730994,0 0,24.1734375 0,54 C0,83.8265625 24.1730994,108 53.9992446,108 C67.091249,108 79.0863937,103.345312 88.4378254,95.596875 L117.363983,124.523438 C118.348344,125.507812 119.642076,126 120.949871,126 C122.257665,126 123.537334,125.507812 124.535758,124.523438 C126.490418,122.540625 126.490418,119.334375 124.521696,117.351562 Z M71.0708808,94.4296875 C65.6709564,96.721875 59.9335366,97.875 53.9992446,97.875 C48.0649526,97.875 42.3275329,96.721875 36.9276084,94.4296875 C31.7104939,92.221875 27.0136846,89.0578125 22.9778036,85.021875 C18.9419225,80.9859375 15.7779043,76.2890625 13.5701227,71.071875 C11.2779672,65.671875 10.1248584,59.934375 10.1248584,54 C10.1248584,48.065625 11.2779672,42.328125 13.5701227,36.928125 C15.7779043,31.7109375 18.9419225,27.0140625 22.9778036,22.978125 C27.0136846,18.9421875 31.7104939,15.778125 36.9276084,13.5703125 C42.3275329,11.278125 48.0649526,10.125 53.9992446,10.125 C59.9335366,10.125 65.6709564,11.278125 71.0708808,13.5703125 C76.2879954,15.778125 80.9848047,18.9421875 85.0206857,22.978125 C89.0565667,27.0140625 92.220585,31.7109375 94.4283666,36.928125 C96.720522,42.328125 97.8736309,48.065625 97.8736309,54 C97.8736309,59.934375 96.720522,65.671875 94.4283666,71.071875 C92.220585,76.2890625 89.0565667,80.9859375 85.0206857,85.021875 C80.9848047,89.0578125 76.3020577,92.221875 71.0708808,94.4296875 Z" id="path-1"></path>
    </defs>
    <g id="控件" stroke="none" stroke-width="1" fill="none" fill-rule="evenodd">
        <g id="画板备份-3">
            <mask id="mask-2" fill="white">
                <use xlink:href="#path-1"></use>
            </mask>
            <use id="Mask" fill="#000000" fill-rule="nonzero" xlink:href="#path-1"></use>
        </g>
    </g>
</svg>