<?xml version="1.0" encoding="UTF-8"?>
<svg width="129px" height="109px" viewBox="0 0 129 109" version="1.1" xmlns="http://www.w3.org/2000/svg" xmlns:xlink="http://www.w3.org/1999/xlink">
    <!-- Generator: Sketch 64 (93537) - https://sketch.com -->
    <title>数据面板</title>
    <desc>Created with Sketch.</desc>
    <g id="控件" stroke="none" stroke-width="1" fill="none" fill-rule="evenodd">
        <g id="画板" transform="translate(1.000000, -8.000000)" fill="#000000" fill-rule="nonzero">
            <path d="M124.817765,8 L3.1822351,8 C1.42119237,8 -7.10542736e-15,9.39346441 -7.10542736e-15,11.1201486 C-7.10542736e-15,12.8468327 1.42119237,14.2402972 3.1822351,14.2402972 L8.35722906,14.2402972 L8.35722906,85.8068118 C8.35722906,90.1083759 11.91021,93.5920369 16.2973691,93.5920369 L50.5759112,93.5920369 L40.7048033,111.419294 C39.4844316,113.191417 40.2104755,115.448223 42.3113686,116.478175 C44.4277094,117.492981 47.1156167,116.887127 48.3359884,115.115004 L59.365677,95.2429893 C59.7209751,94.7280133 59.8600048,94.1827447 59.9063481,93.6223296 L67.9546223,93.6223296 C68.0009655,94.1827447 68.1399952,94.7280133 68.4952933,95.2429893 L79.5095342,115.145296 C80.7299059,116.917419 83.4332609,117.523274 85.534154,116.508468 C87.6504948,115.493662 88.361091,113.22171 87.1407193,111.449586 L77.2850591,93.6071833 L111.563601,93.6071833 C115.95076,93.6071833 119.503741,90.1235222 119.503741,85.8219582 L119.503741,14.2402972 L124.817765,14.2402972 C126.578808,14.2402972 128,12.8468327 128,11.1201486 C128,9.40861077 126.578808,8 124.817765,8 Z M106.682114,36.3842642 L77.6403572,61.224282 C75.2305093,63.2993323 71.7084238,63.6628447 68.8969346,62.1330632 L49.9425537,51.8183972 C49.5100169,51.5760556 48.9693459,51.6669337 48.6140478,52.0152998 L30.2312334,71.0542647 C29.350712,71.9630458 28.1148926,72.4780218 26.8327299,72.4780218 C25.6123582,72.4780218 24.4537775,72.0236312 23.5887038,71.1905818 C21.7349747,69.433605 21.6577359,66.5255053 23.4496741,64.6927967 L43.3463674,44.1089039 C45.7562153,41.6400485 49.5409124,41.0796334 52.5841178,42.7305859 L71.7238716,53.1512762 C72.1255129,53.3784715 72.6352884,53.3178861 72.9751388,53.0149591 L100.518465,29.4623812 C101.460777,28.6596246 102.665701,28.250673 103.916968,28.3415512 C105.168236,28.4172829 106.311369,28.977698 107.130099,29.9167718 C107.948829,30.8255529 108.365918,32.0221148 108.273232,33.2489693 C108.195993,34.4606775 107.624427,35.5815076 106.682114,36.3842642 L106.682114,36.3842642 Z" id="形状"></path>
        </g>
    </g>
</svg>