<?xml version="1.0" encoding="UTF-8"?>
<svg width="128px" height="128px" viewBox="0 0 128 128" version="1.1" xmlns="http://www.w3.org/2000/svg" xmlns:xlink="http://www.w3.org/1999/xlink">
    <!-- Generator: Sketch 64 (93537) - https://sketch.com -->
    <title>机器人设置</title>
    <desc>Created with Sketch.</desc>
    <g id="控件" stroke="none" stroke-width="1" fill="none" fill-rule="evenodd">
        <g id="画板备份-8" fill="#000000" fill-rule="nonzero">
            <path d="M54.6599621,0.598359678 C60.8359744,-0.199453226 67.088824,-0.199453226 73.2648363,0.598359678 C77.6395393,1.11488574 81.3240388,4.11088439 82.7251969,8.2909182 C84.2861269,12.7975438 87.5165705,16.5320829 91.7493882,18.7232921 C96.1071918,21.0499502 101.143463,21.7693074 105.97753,20.7555728 C110.276745,19.7997341 114.752349,21.2929521 117.618736,24.639487 C121.483126,29.2201086 124.673832,34.329858 127.094137,39.8138491 C128.889653,43.8622694 127.964122,48.6023902 124.777928,51.6763465 C121.47739,54.9252261 119.618508,59.3645777 119.618508,63.9979888 C119.618508,68.6313998 121.47739,73.0707514 124.777928,76.319631 C127.964122,79.3935873 128.889653,84.1337081 127.094137,88.1821284 C124.697078,93.6616442 121.531839,98.771162 117.693938,103.356491 C114.822771,106.705581 110.341522,108.198754 106.037691,107.240405 C101.184444,106.212025 96.1242715,106.931753 91.7493882,109.272685 C87.513653,111.460186 84.2820424,115.196074 82.7251969,119.705059 C81.3171526,123.898627 77.6114374,126.897574 73.2197155,127.397618 C67.0440486,128.200794 60.7905079,128.200794 54.6148411,127.397618 C50.2287908,126.89207 46.5301542,123.894108 45.1243999,119.705059 C43.6039063,115.222181 40.4295056,111.490231 36.2506119,109.272685 C31.8714616,106.928173 26.8053086,106.208353 21.9472687,107.240405 C17.6480532,108.196243 13.1724498,106.703025 10.306062,103.356491 C6.46816134,98.771162 3.30292215,93.6616442 0.90586271,88.1821284 C-0.889653117,84.1337081 0.0358780809,79.3935873 3.2220719,76.319631 C6.5031147,73.05454 8.35807517,68.6213401 8.38090124,63.9904618 C8.35410568,59.3648085 6.49944922,54.9377472 3.2220719,51.6763465 C0.0358780809,48.6023902 -0.889653117,43.8622694 0.90586271,39.8138491 C3.2889692,34.3370084 6.43893014,29.2276287 10.2609411,24.639487 C13.1282388,21.284636 17.6130049,19.7902917 21.9171881,20.7555728 C26.7704355,21.7839526 31.8306075,21.0642248 36.2054909,18.7232921 C40.3985248,16.5110677 43.5889297,12.7792776 45.1243999,8.2909182 C46.5370084,4.08828751 50.2569008,1.08736423 54.6599621,0.598359678 Z M63.9548791,38.218128 C53.5315523,38.2120438 44.1314729,44.4927054 40.1398279,54.1301553 C36.1481829,63.7676052 38.351491,74.8628679 45.7218973,82.2399447 C53.0923036,89.6170215 64.1775339,91.8223237 73.8062696,87.8270662 C83.4350052,83.8318086 89.7099878,74.423222 89.7039092,63.9904618 C89.6873288,49.7636752 78.1688017,38.2347234 63.9548791,38.218128 Z M63.9548791,48.6053446 C72.4431695,48.6136253 79.3245505,55.4945014 79.3411326,63.9904618 C79.3472098,70.2206159 75.6023315,75.8406956 69.8533696,78.2290934 C64.1044078,80.6174912 57.4840436,79.3036364 53.0804889,74.9004048 C48.6769343,70.4971733 47.3577934,63.8721056 49.738408,58.1156077 C52.1190226,52.3591097 57.7303554,48.6053446 63.9548791,48.6053446 Z" id="形状结合"></path>
        </g>
    </g>
</svg>