<?xml version="1.0" encoding="UTF-8"?>
<svg width="128px" height="81px" viewBox="0 0 128 81" version="1.1" xmlns="http://www.w3.org/2000/svg" xmlns:xlink="http://www.w3.org/1999/xlink">
    <!-- Generator: Sketch 64 (93537) - https://sketch.com -->
    <title>知识库</title>
    <desc>Created with Sketch.</desc>
    <g id="控件" stroke="none" stroke-width="1" fill="none" fill-rule="evenodd">
        <g id="画板备份-6" transform="translate(0.000000, -21.000000)" fill="#000000" fill-rule="nonzero">
            <path d="M128,76.6839721 C128,90.6543554 116.528571,102 102.4,102 C101.614286,102 100.857143,101.957666 100.085714,101.90122 L23.4571429,101.90122 C22.7571429,101.971777 22.0571429,102 21.3428571,102 C9.54285714,102 0,92.5594077 0,80.9033101 C0,69.2472125 9.54285714,59.8066202 21.3285714,59.8066202 C25.6428571,59.8066202 29.6571429,61.0766551 33,63.2498258 C31.4285714,59.5949477 30.5571429,55.5872822 30.5571429,51.3679443 C30.5714286,34.5893728 44.3142857,21 61.2857143,21 C78.2428571,21 92,34.5893728 92,51.3679443 C92,52.1158537 91.9714286,52.8496516 91.9142857,53.5834495 C95.1142857,52.1581882 98.6571429,51.3679443 102.4,51.3679443 C116.528571,51.3679443 128,62.6994774 128,76.6839721 Z" id="路径"></path>
        </g>
    </g>
</svg>