<?xml version="1.0" encoding="UTF-8"?>
<svg width="128px" height="128px" viewBox="0 0 128 128" version="1.1" xmlns="http://www.w3.org/2000/svg" xmlns:xlink="http://www.w3.org/1999/xlink">
    <!-- Generator: Sketch 64 (93537) - https://sketch.com -->
    <title>修理维护</title>
    <desc>Created with Sketch.</desc>
    <g id="控件" stroke="none" stroke-width="1" fill="none" fill-rule="evenodd">
        <g id="画板备份-4" fill="#000000" fill-rule="nonzero">
            <g id="修理维护">
                <rect id="Rectangle" opacity="0" x="0" y="0" width="128" height="128"></rect>
                <path d="M64,128 C28.6549334,128 0,99.3450666 0,64 C0,28.6549334 28.6549334,0 64,0 C99.3450666,0 128,28.6549334 128,64 C128,99.3450666 99.3450666,128 64,128 Z M94.0815123,84.041432 L79.2066628,69.1369352 C79.2066628,69.1369352 77.3949982,67.6231011 78.6208257,65.7031164 C79.8739524,62.7267291 80.5184061,59.5295455 80.5161813,56.3001143 C80.5161813,42.8799134 69.6535781,32 56.2580907,32 C54.007398,32.0016573 51.7682443,32.3215387 49.6071153,32.9501462 C47.7979123,33.575372 49.0828157,34.8947462 49.0828157,34.8947462 L60.2580294,46.0872725 C63.8477964,49.685516 63.8477964,55.5104639 60.2580294,59.1087073 L59.1749691,60.1917756 C57.4529484,61.9179946 55.1148735,62.8881271 52.6766069,62.8881271 C50.2383404,62.8881271 47.9002655,61.9179946 46.1782448,60.1917756 L34.8282644,48.8195585 C34.8282644,48.8195585 33.6639745,47.844797 33.0436763,49.3118622 C32.3534145,51.5779863 32.0017257,53.9336555 32,56.3025759 C32,69.7227768 42.8601416,80.6051517 56.2580907,80.6051517 C59.7692632,80.608524 63.2387953,79.8448853 66.424089,78.367631 C67.81976,77.6439445 68.8609748,78.8353197 68.8609748,78.8353196 L84.0607425,94.079506 C85.5236519,95.548696 87.5978733,96.2349302 89.6483494,95.9281067 C89.6483494,95.9281067 94.7682711,95.4678026 95.9104074,89.7496942 C96.2590545,87.6624459 95.5778375,85.5353463 94.0815123,84.0389705 L94.0815123,84.041432 Z" id="Shape"></path>
            </g>
        </g>
    </g>
</svg>